<svg width="13" height="14" viewBox="0 0 13 14" fill="none" xmlns="http://www.w3.org/2000/svg">
<path d="M4.375 0.875V1.75H7.875V0.875C7.875 0.619792 7.95703 0.410156 8.12109 0.246094C8.28516 0.0820312 8.49479 0 8.75 0C9.00521 0 9.21484 0.0820312 9.37891 0.246094C9.54297 0.410156 9.625 0.619792 9.625 0.875V1.75H10.9375C11.3021 1.76823 11.612 1.89583 11.8672 2.13281C12.1042 2.38802 12.2318 2.69792 12.25 3.0625V4.375H0V3.0625C0.0182292 2.69792 0.145833 2.38802 0.382812 2.13281C0.638021 1.89583 0.947917 1.76823 1.3125 1.75H2.625V0.875C2.625 0.619792 2.70703 0.410156 2.87109 0.246094C3.03516 0.0820312 3.24479 0 3.5 0C3.75521 0 3.96484 0.0820312 4.12891 0.246094C4.29297 0.410156 4.375 0.619792 4.375 0.875ZM0 5.25H12.25V12.6875C12.2318 13.0521 12.1042 13.362 11.8672 13.6172C11.612 13.8542 11.3021 13.9818 10.9375 14H1.3125C0.947917 13.9818 0.638021 13.8542 0.382812 13.6172C0.145833 13.362 0.0182292 13.0521 0 12.6875V5.25ZM1.75 8.3125C1.76823 8.58594 1.91406 8.73177 2.1875 8.75H3.0625C3.33594 8.73177 3.48177 8.58594 3.5 8.3125V7.4375C3.48177 7.16406 3.33594 7.01823 3.0625 7H2.1875C1.91406 7.01823 1.76823 7.16406 1.75 7.4375V8.3125ZM5.25 8.3125C5.26823 8.58594 5.41406 8.73177 5.6875 8.75H6.5625C6.83594 8.73177 6.98177 8.58594 7 8.3125V7.4375C6.98177 7.16406 6.83594 7.01823 6.5625 7H5.6875C5.41406 7.01823 5.26823 7.16406 5.25 7.4375V8.3125ZM9.1875 7C8.91406 7.01823 8.76823 7.16406 8.75 7.4375V8.3125C8.76823 8.58594 8.91406 8.73177 9.1875 8.75H10.0625C10.3359 8.73177 10.4818 8.58594 10.5 8.3125V7.4375C10.4818 7.16406 10.3359 7.01823 10.0625 7H9.1875ZM1.75 11.8125C1.76823 12.0859 1.91406 12.2318 2.1875 12.25H3.0625C3.33594 12.2318 3.48177 12.0859 3.5 11.8125V10.9375C3.48177 10.6641 3.33594 10.5182 3.0625 10.5H2.1875C1.91406 10.5182 1.76823 10.6641 1.75 10.9375V11.8125ZM5.6875 10.5C5.41406 10.5182 5.26823 10.6641 5.25 10.9375V11.8125C5.26823 12.0859 5.41406 12.2318 5.6875 12.25H6.5625C6.83594 12.2318 6.98177 12.0859 7 11.8125V10.9375C6.98177 10.6641 6.83594 10.5182 6.5625 10.5H5.6875ZM8.75 11.8125C8.76823 12.0859 8.91406 12.2318 9.1875 12.25H10.0625C10.3359 12.2318 10.4818 12.0859 10.5 11.8125V10.9375C10.4818 10.6641 10.3359 10.5182 10.0625 10.5H9.1875C8.91406 10.5182 8.76823 10.6641 8.75 10.9375V11.8125Z" fill="#429EA6"/>
</svg>
