<svg width="16" height="12" viewBox="0 0 16 12" fill="none" xmlns="http://www.w3.org/2000/svg">
<path d="M14.5 0C14.9167 0.0208333 15.2708 0.166667 15.5625 0.4375C15.8333 0.729167 15.9792 1.08333 16 1.5C15.9792 2 15.7812 2.39583 15.4062 2.6875L8.59375 7.8125C8.19792 8.0625 7.80208 8.0625 7.40625 7.8125L0.59375 2.6875C0.21875 2.39583 0.0208333 2 0 1.5C0.0208333 1.08333 0.166667 0.729167 0.4375 0.4375C0.729167 0.166667 1.08333 0.0208333 1.5 0H14.5ZM6.8125 8.59375C7.16667 8.86458 7.5625 9 8 9C8.4375 9 8.83333 8.86458 9.1875 8.59375L16 3.5V10C15.9792 10.5625 15.7812 11.0312 15.4062 11.4062C15.0312 11.7812 14.5625 11.9792 14 12H2C1.4375 11.9792 0.96875 11.7812 0.59375 11.4062C0.21875 11.0312 0.0208333 10.5625 0 10V3.5L6.8125 8.59375Z" fill="white"/>
</svg>
