<svg width="12" height="16" viewBox="0 0 12 16" fill="none" xmlns="http://www.w3.org/2000/svg">
<path d="M5.25 15.5938C4.6875 14.9062 3.98958 13.9792 3.15625 12.8125C2.34375 11.6667 1.625 10.4792 1 9.25C0.375 8.02083 0.0416667 6.9375 0 6C0.0416667 4.29167 0.625 2.875 1.75 1.75C2.875 0.625 4.29167 0.0416667 6 0C7.70833 0.0416667 9.125 0.625 10.25 1.75C11.375 2.875 11.9583 4.29167 12 6C11.9583 6.9375 11.625 8.02083 11 9.25C10.3542 10.4792 9.625 11.6667 8.8125 12.8125C8 13.9792 7.3125 14.9062 6.75 15.5938C6.54167 15.8438 6.29167 15.9688 6 15.9688C5.70833 15.9688 5.45833 15.8438 5.25 15.5938ZM6 8C6.5625 7.97917 7.03125 7.78125 7.40625 7.40625C7.78125 7.03125 7.97917 6.5625 8 6C7.97917 5.4375 7.78125 4.96875 7.40625 4.59375C7.03125 4.21875 6.5625 4.02083 6 4C5.4375 4.02083 4.96875 4.21875 4.59375 4.59375C4.21875 4.96875 4.02083 5.4375 4 6C4.02083 6.5625 4.21875 7.03125 4.59375 7.40625C4.96875 7.78125 5.4375 7.97917 6 8Z" fill="white"/>
</svg>
