<svg width="17" height="17" viewBox="0 0 17 17" fill="none" xmlns="http://www.w3.org/2000/svg">
<path d="M15.9688 12.1875L15.25 15.3438C15.1042 15.8229 14.7812 16.0729 14.2812 16.0938C11.6354 16.0729 9.23958 15.4167 7.09375 14.125C4.94792 12.8542 3.23958 11.1458 1.96875 9C0.677083 6.85417 0.0208333 4.45833 0 1.8125C0.0208333 1.3125 0.270833 0.989583 0.75 0.84375L3.90625 0.125C4.40625 0.0416667 4.78125 0.229167 5.03125 0.6875L6.46875 4.0625C6.63542 4.52083 6.54167 4.90625 6.1875 5.21875L4.53125 6.5625C5.05208 7.64583 5.73958 8.61458 6.59375 9.46875C7.44792 10.3229 8.41667 11.0208 9.5 11.5625L10.875 9.875C11.1875 9.52083 11.5729 9.42708 12.0312 9.59375L15.4062 11.0312C15.8438 11.3021 16.0312 11.6875 15.9688 12.1875Z" fill="white"/>
</svg>
