<svg width="525" height="119" viewBox="0 0 525 119" fill="none" xmlns="http://www.w3.org/2000/svg">
<path d="M274.33 60.8502C263.73 67.3302 253.93 70.3702 253.93 70.3702C256.75 71.0902 259.7 71.4702 262.74 71.4702C279.92 71.4702 294.25 59.3402 297.68 43.1802C295.63 44.9602 293.48 46.6502 291.28 48.2902C291.28 48.2902 284.02 54.9302 274.33 60.8502Z" fill="#429EA6"/>
<path d="M287.32 9.82C280.56 15.55 274.03 21.67 265.1 23.85C260.73 24.91 256.5 24.83 253.68 20.93C251.96 18.55 252.69 14.69 254.1 12.19C254.95 10.4 255.16 10.03 256.06 8.96C257.54 7.21 259.02 5.5 260.72 3.95C262.17 2.63 263.71 1.61 264.96 0.09C264.24 0.04 263.51 0 262.77 0H262.73C243 0 227 15.61 227 35.34V35.73C227 43.38 229.41 50.46 233.5 56.27C235.18 57.39 236.66 58.43 238.87 58.74C242.05 59.19 245.19 59.22 248.34 58.49C248.34 58.49 260.48 57.25 275.8 46.41C287.62 38.05 297.73 28.58 297.73 28.58C296.25 21.27 292.54 14.76 287.32 9.82Z" fill="#429EA6"/>
<path d="M12.54 112.36C10.92 112.36 9.41 112.1 8.01 111.58C6.63 111.04 5.43 110.28 4.41 109.3C3.39 108.32 2.59 107.17 2.01 105.85C1.45 104.53 1.17 103.08 1.17 101.5C1.17 99.92 1.45 98.47 2.01 97.15C2.59 95.83 3.39 94.68 4.41 93.7C5.45 92.72 6.66 91.97 8.04 91.45C9.42 90.91 10.93 90.64 12.57 90.64C14.39 90.64 16.03 90.96 17.49 91.6C18.97 92.22 20.21 93.14 21.21 94.36L18.09 97.24C17.37 96.42 16.57 95.81 15.69 95.41C14.81 94.99 13.85 94.78 12.81 94.78C11.83 94.78 10.93 94.94 10.11 95.26C9.29 95.58 8.58 96.04 7.98 96.64C7.38 97.24 6.91 97.95 6.57 98.77C6.25 99.59 6.09 100.5 6.09 101.5C6.09 102.5 6.25 103.41 6.57 104.23C6.91 105.05 7.38 105.76 7.98 106.36C8.58 106.96 9.29 107.42 10.11 107.74C10.93 108.06 11.83 108.22 12.81 108.22C13.85 108.22 14.81 108.02 15.69 107.62C16.57 107.2 17.37 106.57 18.09 105.73L21.21 108.61C20.21 109.83 18.97 110.76 17.49 111.4C16.03 112.04 14.38 112.36 12.54 112.36ZM24.162 112V89.74H28.842V112H24.162ZM41.1954 112.24C39.3554 112.24 37.7354 111.88 36.3354 111.16C34.9554 110.44 33.8854 109.46 33.1254 108.22C32.3654 106.96 31.9854 105.53 31.9854 103.93C31.9854 102.31 32.3554 100.88 33.0954 99.64C33.8554 98.38 34.8854 97.4 36.1854 96.7C37.4854 95.98 38.9554 95.62 40.5954 95.62C42.1754 95.62 43.5954 95.96 44.8554 96.64C46.1354 97.3 47.1454 98.26 47.8854 99.52C48.6254 100.76 48.9954 102.25 48.9954 103.99C48.9954 104.17 48.9854 104.38 48.9654 104.62C48.9454 104.84 48.9254 105.05 48.9054 105.25H35.7954V102.52H46.4454L44.6454 103.33C44.6454 102.49 44.4754 101.76 44.1354 101.14C43.7954 100.52 43.3254 100.04 42.7254 99.7C42.1254 99.34 41.4254 99.16 40.6254 99.16C39.8254 99.16 39.1154 99.34 38.4954 99.7C37.8954 100.04 37.4254 100.53 37.0854 101.17C36.7454 101.79 36.5754 102.53 36.5754 103.39V104.11C36.5754 104.99 36.7654 105.77 37.1454 106.45C37.5454 107.11 38.0954 107.62 38.7954 107.98C39.5154 108.32 40.3554 108.49 41.3154 108.49C42.1754 108.49 42.9254 108.36 43.5654 108.1C44.2254 107.84 44.8254 107.45 45.3654 106.93L47.8554 109.63C47.1154 110.47 46.1854 111.12 45.0654 111.58C43.9454 112.02 42.6554 112.24 41.1954 112.24ZM61.5717 112V108.85L61.2717 108.16V102.52C61.2717 101.52 60.9617 100.74 60.3417 100.18C59.7417 99.62 58.8117 99.34 57.5517 99.34C56.6917 99.34 55.8417 99.48 55.0017 99.76C54.1817 100.02 53.4817 100.38 52.9017 100.84L51.2217 97.57C52.1017 96.95 53.1617 96.47 54.4017 96.13C55.6417 95.79 56.9017 95.62 58.1817 95.62C60.6417 95.62 62.5517 96.2 63.9117 97.36C65.2717 98.52 65.9517 100.33 65.9517 102.79V112H61.5717ZM56.6517 112.24C55.3917 112.24 54.3117 112.03 53.4117 111.61C52.5117 111.17 51.8217 110.58 51.3417 109.84C50.8617 109.1 50.6217 108.27 50.6217 107.35C50.6217 106.39 50.8517 105.55 51.3117 104.83C51.7917 104.11 52.5417 103.55 53.5617 103.15C54.5817 102.73 55.9117 102.52 57.5517 102.52H61.8417V105.25H58.0617C56.9617 105.25 56.2017 105.43 55.7817 105.79C55.3817 106.15 55.1817 106.6 55.1817 107.14C55.1817 107.74 55.4117 108.22 55.8717 108.58C56.3517 108.92 57.0017 109.09 57.8217 109.09C58.6017 109.09 59.3017 108.91 59.9217 108.55C60.5417 108.17 60.9917 107.62 61.2717 106.9L61.9917 109.06C61.6517 110.1 61.0317 110.89 60.1317 111.43C59.2317 111.97 58.0717 112.24 56.6517 112.24ZM79.9973 95.62C81.2773 95.62 82.4173 95.88 83.4173 96.4C84.4373 96.9 85.2373 97.68 85.8173 98.74C86.3973 99.78 86.6873 101.12 86.6873 102.76V112H82.0073V103.48C82.0073 102.18 81.7173 101.22 81.1373 100.6C80.5773 99.98 79.7773 99.67 78.7373 99.67C77.9973 99.67 77.3273 99.83 76.7273 100.15C76.1473 100.45 75.6873 100.92 75.3473 101.56C75.0273 102.2 74.8673 103.02 74.8673 104.02V112H70.1873V95.86H74.6573V100.33L73.8173 98.98C74.3973 97.9 75.2273 97.07 76.3073 96.49C77.3873 95.91 78.6173 95.62 79.9973 95.62ZM90.9295 112V95.86H95.3995V100.42L94.7695 99.1C95.2495 97.96 96.0195 97.1 97.0795 96.52C98.1395 95.92 99.4295 95.62 100.95 95.62V99.94C100.75 99.92 100.57 99.91 100.41 99.91C100.25 99.89 100.08 99.88 99.8995 99.88C98.6195 99.88 97.5795 100.25 96.7795 100.99C95.9995 101.71 95.6095 102.84 95.6095 104.38V112H90.9295ZM111.295 112.24C109.575 112.24 108.045 111.88 106.705 111.16C105.385 110.44 104.335 109.46 103.555 108.22C102.795 106.96 102.415 105.53 102.415 103.93C102.415 102.31 102.795 100.88 103.555 99.64C104.335 98.38 105.385 97.4 106.705 96.7C108.045 95.98 109.575 95.62 111.295 95.62C112.995 95.62 114.515 95.98 115.855 96.7C117.195 97.4 118.245 98.37 119.005 99.61C119.765 100.85 120.145 102.29 120.145 103.93C120.145 105.53 119.765 106.96 119.005 108.22C118.245 109.46 117.195 110.44 115.855 111.16C114.515 111.88 112.995 112.24 111.295 112.24ZM111.295 108.4C112.075 108.4 112.775 108.22 113.395 107.86C114.015 107.5 114.505 106.99 114.865 106.33C115.225 105.65 115.405 104.85 115.405 103.93C115.405 102.99 115.225 102.19 114.865 101.53C114.505 100.87 114.015 100.36 113.395 100C112.775 99.64 112.075 99.46 111.295 99.46C110.515 99.46 109.815 99.64 109.195 100C108.575 100.36 108.075 100.87 107.695 101.53C107.335 102.19 107.155 102.99 107.155 103.93C107.155 104.85 107.335 105.65 107.695 106.33C108.075 106.99 108.575 107.5 109.195 107.86C109.815 108.22 110.515 108.4 111.295 108.4ZM130.953 112.24C129.233 112.24 127.703 111.88 126.363 111.16C125.043 110.44 123.993 109.46 123.213 108.22C122.453 106.96 122.073 105.53 122.073 103.93C122.073 102.31 122.453 100.88 123.213 99.64C123.993 98.38 125.043 97.4 126.363 96.7C127.703 95.98 129.233 95.62 130.953 95.62C132.653 95.62 134.173 95.98 135.513 96.7C136.853 97.4 137.903 98.37 138.663 99.61C139.423 100.85 139.803 102.29 139.803 103.93C139.803 105.53 139.423 106.96 138.663 108.22C137.903 109.46 136.853 110.44 135.513 111.16C134.173 111.88 132.653 112.24 130.953 112.24ZM130.953 108.4C131.733 108.4 132.433 108.22 133.053 107.86C133.673 107.5 134.163 106.99 134.523 106.33C134.883 105.65 135.063 104.85 135.063 103.93C135.063 102.99 134.883 102.19 134.523 101.53C134.163 100.87 133.673 100.36 133.053 100C132.433 99.64 131.733 99.46 130.953 99.46C130.173 99.46 129.473 99.64 128.853 100C128.233 100.36 127.733 100.87 127.353 101.53C126.993 102.19 126.813 102.99 126.813 103.93C126.813 104.85 126.993 105.65 127.353 106.33C127.733 106.99 128.233 107.5 128.853 107.86C129.473 108.22 130.173 108.4 130.953 108.4ZM163.601 95.62C164.881 95.62 166.011 95.88 166.991 96.4C167.991 96.9 168.771 97.68 169.331 98.74C169.911 99.78 170.201 101.12 170.201 102.76V112H165.521V103.48C165.521 102.18 165.251 101.22 164.711 100.6C164.171 99.98 163.411 99.67 162.431 99.67C161.751 99.67 161.141 99.83 160.601 100.15C160.061 100.45 159.641 100.91 159.341 101.53C159.041 102.15 158.891 102.94 158.891 103.9V112H154.211V103.48C154.211 102.18 153.941 101.22 153.401 100.6C152.881 99.98 152.131 99.67 151.151 99.67C150.471 99.67 149.861 99.83 149.321 100.15C148.781 100.45 148.361 100.91 148.061 101.53C147.761 102.15 147.611 102.94 147.611 103.9V112H142.931V95.86H147.401V100.27L146.561 98.98C147.121 97.88 147.911 97.05 148.931 96.49C149.971 95.91 151.151 95.62 152.471 95.62C153.951 95.62 155.241 96 156.341 96.76C157.461 97.5 158.201 98.64 158.561 100.18L156.911 99.73C157.451 98.47 158.311 97.47 159.491 96.73C160.691 95.99 162.061 95.62 163.601 95.62ZM190.122 112.36C188.442 112.36 186.832 112.14 185.292 111.7C183.752 111.24 182.512 110.65 181.572 109.93L183.222 106.27C184.122 106.91 185.182 107.44 186.402 107.86C187.642 108.26 188.892 108.46 190.152 108.46C191.112 108.46 191.882 108.37 192.462 108.19C193.062 107.99 193.502 107.72 193.782 107.38C194.062 107.04 194.202 106.65 194.202 106.21C194.202 105.65 193.982 105.21 193.542 104.89C193.102 104.55 192.522 104.28 191.802 104.08C191.082 103.86 190.282 103.66 189.402 103.48C188.542 103.28 187.672 103.04 186.792 102.76C185.932 102.48 185.142 102.12 184.422 101.68C183.702 101.24 183.112 100.66 182.652 99.94C182.212 99.22 181.992 98.3 181.992 97.18C181.992 95.98 182.312 94.89 182.952 93.91C183.612 92.91 184.592 92.12 185.892 91.54C187.212 90.94 188.862 90.64 190.842 90.64C192.162 90.64 193.462 90.8 194.742 91.12C196.022 91.42 197.152 91.88 198.132 92.5L196.632 96.19C195.652 95.63 194.672 95.22 193.692 94.96C192.712 94.68 191.752 94.54 190.812 94.54C189.872 94.54 189.102 94.65 188.502 94.87C187.902 95.09 187.472 95.38 187.212 95.74C186.952 96.08 186.822 96.48 186.822 96.94C186.822 97.48 187.042 97.92 187.482 98.26C187.922 98.58 188.502 98.84 189.222 99.04C189.942 99.24 190.732 99.44 191.592 99.64C192.472 99.84 193.342 100.07 194.202 100.33C195.082 100.59 195.882 100.94 196.602 101.38C197.322 101.82 197.902 102.4 198.342 103.12C198.802 103.84 199.032 104.75 199.032 105.85C199.032 107.03 198.702 108.11 198.042 109.09C197.382 110.07 196.392 110.86 195.072 111.46C193.772 112.06 192.122 112.36 190.122 112.36ZM203.77 118.06C202.93 118.06 202.1 117.93 201.28 117.67C200.46 117.41 199.79 117.05 199.27 116.59L200.98 113.26C201.34 113.58 201.75 113.83 202.21 114.01C202.69 114.19 203.16 114.28 203.62 114.28C204.28 114.28 204.8 114.12 205.18 113.8C205.58 113.5 205.94 112.99 206.26 112.27L207.1 110.29L207.46 109.78L213.25 95.86H217.75L210.46 112.99C209.94 114.29 209.34 115.31 208.66 116.05C208 116.79 207.26 117.31 206.44 117.61C205.64 117.91 204.75 118.06 203.77 118.06ZM206.53 112.63L199.33 95.86H204.16L209.74 109.36L206.53 112.63ZM224.856 112.24C223.476 112.24 222.146 112.08 220.866 111.76C219.606 111.42 218.606 111 217.866 110.5L219.426 107.14C220.166 107.6 221.036 107.98 222.036 108.28C223.056 108.56 224.056 108.7 225.036 108.7C226.116 108.7 226.876 108.57 227.316 108.31C227.776 108.05 228.006 107.69 228.006 107.23C228.006 106.85 227.826 106.57 227.466 106.39C227.126 106.19 226.666 106.04 226.086 105.94C225.506 105.84 224.866 105.74 224.166 105.64C223.486 105.54 222.796 105.41 222.096 105.25C221.396 105.07 220.756 104.81 220.176 104.47C219.596 104.13 219.126 103.67 218.766 103.09C218.426 102.51 218.256 101.76 218.256 100.84C218.256 99.82 218.546 98.92 219.126 98.14C219.726 97.36 220.586 96.75 221.706 96.31C222.826 95.85 224.166 95.62 225.726 95.62C226.826 95.62 227.946 95.74 229.086 95.98C230.226 96.22 231.176 96.57 231.936 97.03L230.376 100.36C229.596 99.9 228.806 99.59 228.006 99.43C227.226 99.25 226.466 99.16 225.726 99.16C224.686 99.16 223.926 99.3 223.446 99.58C222.966 99.86 222.726 100.22 222.726 100.66C222.726 101.06 222.896 101.36 223.236 101.56C223.596 101.76 224.066 101.92 224.646 102.04C225.226 102.16 225.856 102.27 226.536 102.37C227.236 102.45 227.936 102.58 228.636 102.76C229.336 102.94 229.966 103.2 230.526 103.54C231.106 103.86 231.576 104.31 231.936 104.89C232.296 105.45 232.476 106.19 232.476 107.11C232.476 108.11 232.176 109 231.576 109.78C230.976 110.54 230.106 111.14 228.966 111.58C227.846 112.02 226.476 112.24 224.856 112.24ZM241.963 112.24C240.063 112.24 238.583 111.76 237.523 110.8C236.463 109.82 235.933 108.37 235.933 106.45V92.29H240.613V106.39C240.613 107.07 240.793 107.6 241.153 107.98C241.513 108.34 242.003 108.52 242.623 108.52C243.363 108.52 243.993 108.32 244.513 107.92L245.773 111.22C245.293 111.56 244.713 111.82 244.033 112C243.373 112.16 242.683 112.24 241.963 112.24ZM233.443 99.82V96.22H244.633V99.82H233.443ZM255.912 112.24C254.072 112.24 252.452 111.88 251.052 111.16C249.672 110.44 248.602 109.46 247.842 108.22C247.082 106.96 246.702 105.53 246.702 103.93C246.702 102.31 247.072 100.88 247.812 99.64C248.572 98.38 249.602 97.4 250.902 96.7C252.202 95.98 253.672 95.62 255.312 95.62C256.892 95.62 258.312 95.96 259.572 96.64C260.852 97.3 261.862 98.26 262.602 99.52C263.342 100.76 263.712 102.25 263.712 103.99C263.712 104.17 263.702 104.38 263.682 104.62C263.662 104.84 263.642 105.05 263.622 105.25H250.512V102.52H261.162L259.362 103.33C259.362 102.49 259.192 101.76 258.852 101.14C258.512 100.52 258.042 100.04 257.442 99.7C256.842 99.34 256.142 99.16 255.342 99.16C254.542 99.16 253.832 99.34 253.212 99.7C252.612 100.04 252.142 100.53 251.802 101.17C251.462 101.79 251.292 102.53 251.292 103.39V104.11C251.292 104.99 251.482 105.77 251.862 106.45C252.262 107.11 252.812 107.62 253.512 107.98C254.232 108.32 255.072 108.49 256.032 108.49C256.892 108.49 257.642 108.36 258.282 108.1C258.942 107.84 259.542 107.45 260.082 106.93L262.572 109.63C261.832 110.47 260.902 111.12 259.782 111.58C258.662 112.02 257.372 112.24 255.912 112.24ZM287.498 95.62C288.778 95.62 289.908 95.88 290.888 96.4C291.888 96.9 292.668 97.68 293.228 98.74C293.808 99.78 294.098 101.12 294.098 102.76V112H289.418V103.48C289.418 102.18 289.148 101.22 288.608 100.6C288.068 99.98 287.308 99.67 286.328 99.67C285.648 99.67 285.038 99.83 284.498 100.15C283.958 100.45 283.538 100.91 283.238 101.53C282.938 102.15 282.788 102.94 282.788 103.9V112H278.108V103.48C278.108 102.18 277.838 101.22 277.298 100.6C276.778 99.98 276.028 99.67 275.048 99.67C274.368 99.67 273.758 99.83 273.218 100.15C272.678 100.45 272.258 100.91 271.958 101.53C271.658 102.15 271.508 102.94 271.508 103.9V112H266.828V95.86H271.298V100.27L270.458 98.98C271.018 97.88 271.808 97.05 272.828 96.49C273.868 95.91 275.048 95.62 276.368 95.62C277.848 95.62 279.138 96 280.238 96.76C281.358 97.5 282.098 98.64 282.458 100.18L280.808 99.73C281.348 98.47 282.208 97.47 283.388 96.73C284.588 95.99 285.958 95.62 287.498 95.62ZM303.723 112.24C302.343 112.24 301.013 112.08 299.733 111.76C298.473 111.42 297.473 111 296.733 110.5L298.293 107.14C299.033 107.6 299.903 107.98 300.903 108.28C301.923 108.56 302.923 108.7 303.903 108.7C304.983 108.7 305.743 108.57 306.183 108.31C306.643 108.05 306.873 107.69 306.873 107.23C306.873 106.85 306.693 106.57 306.333 106.39C305.993 106.19 305.533 106.04 304.953 105.94C304.373 105.84 303.733 105.74 303.033 105.64C302.353 105.54 301.663 105.41 300.963 105.25C300.263 105.07 299.623 104.81 299.043 104.47C298.463 104.13 297.993 103.67 297.633 103.09C297.293 102.51 297.123 101.76 297.123 100.84C297.123 99.82 297.413 98.92 297.993 98.14C298.593 97.36 299.453 96.75 300.573 96.31C301.693 95.85 303.033 95.62 304.593 95.62C305.693 95.62 306.813 95.74 307.953 95.98C309.093 96.22 310.043 96.57 310.803 97.03L309.243 100.36C308.463 99.9 307.673 99.59 306.873 99.43C306.093 99.25 305.333 99.16 304.593 99.16C303.553 99.16 302.793 99.3 302.313 99.58C301.833 99.86 301.593 100.22 301.593 100.66C301.593 101.06 301.763 101.36 302.103 101.56C302.463 101.76 302.933 101.92 303.513 102.04C304.093 102.16 304.723 102.27 305.403 102.37C306.103 102.45 306.803 102.58 307.503 102.76C308.203 102.94 308.833 103.2 309.393 103.54C309.973 103.86 310.443 104.31 310.803 104.89C311.163 105.45 311.343 106.19 311.343 107.11C311.343 108.11 311.043 109 310.443 109.78C309.843 110.54 308.973 111.14 307.833 111.58C306.713 112.02 305.343 112.24 303.723 112.24ZM323.056 112V91H327.916V112H323.056ZM342.38 95.62C343.66 95.62 344.8 95.88 345.8 96.4C346.82 96.9 347.62 97.68 348.2 98.74C348.78 99.78 349.07 101.12 349.07 102.76V112H344.39V103.48C344.39 102.18 344.1 101.22 343.52 100.6C342.96 99.98 342.16 99.67 341.12 99.67C340.38 99.67 339.71 99.83 339.11 100.15C338.53 100.45 338.07 100.92 337.73 101.56C337.41 102.2 337.25 103.02 337.25 104.02V112H332.57V95.86H337.04V100.33L336.2 98.98C336.78 97.9 337.61 97.07 338.69 96.49C339.77 95.91 341 95.62 342.38 95.62ZM359.912 112.24C358.012 112.24 356.532 111.76 355.472 110.8C354.412 109.82 353.882 108.37 353.882 106.45V92.29H358.562V106.39C358.562 107.07 358.742 107.6 359.102 107.98C359.462 108.34 359.952 108.52 360.572 108.52C361.312 108.52 361.942 108.32 362.462 107.92L363.722 111.22C363.242 111.56 362.662 111.82 361.982 112C361.322 112.16 360.632 112.24 359.912 112.24ZM351.392 99.82V96.22H362.582V99.82H351.392ZM373.861 112.24C372.021 112.24 370.401 111.88 369.001 111.16C367.621 110.44 366.551 109.46 365.791 108.22C365.031 106.96 364.651 105.53 364.651 103.93C364.651 102.31 365.021 100.88 365.761 99.64C366.521 98.38 367.551 97.4 368.851 96.7C370.151 95.98 371.621 95.62 373.261 95.62C374.841 95.62 376.261 95.96 377.521 96.64C378.801 97.3 379.811 98.26 380.551 99.52C381.291 100.76 381.661 102.25 381.661 103.99C381.661 104.17 381.651 104.38 381.631 104.62C381.611 104.84 381.591 105.05 381.571 105.25H368.461V102.52H379.111L377.311 103.33C377.311 102.49 377.141 101.76 376.801 101.14C376.461 100.52 375.991 100.04 375.391 99.7C374.791 99.34 374.091 99.16 373.291 99.16C372.491 99.16 371.781 99.34 371.161 99.7C370.561 100.04 370.091 100.53 369.751 101.17C369.411 101.79 369.241 102.53 369.241 103.39V104.11C369.241 104.99 369.431 105.77 369.811 106.45C370.211 107.11 370.761 107.62 371.461 107.98C372.181 108.32 373.021 108.49 373.981 108.49C374.841 108.49 375.591 108.36 376.231 108.1C376.891 107.84 377.491 107.45 378.031 106.93L380.521 109.63C379.781 110.47 378.851 111.12 377.731 111.58C376.611 112.02 375.321 112.24 373.861 112.24ZM384.777 112V95.86H389.247V100.42L388.617 99.1C389.097 97.96 389.867 97.1 390.927 96.52C391.987 95.92 393.277 95.62 394.797 95.62V99.94C394.597 99.92 394.417 99.91 394.257 99.91C394.097 99.89 393.927 99.88 393.747 99.88C392.467 99.88 391.427 100.25 390.627 100.99C389.847 101.71 389.457 102.84 389.457 104.38V112H384.777ZM407.419 95.62C408.699 95.62 409.839 95.88 410.839 96.4C411.859 96.9 412.659 97.68 413.239 98.74C413.819 99.78 414.109 101.12 414.109 102.76V112H409.429V103.48C409.429 102.18 409.139 101.22 408.559 100.6C407.999 99.98 407.199 99.67 406.159 99.67C405.419 99.67 404.749 99.83 404.149 100.15C403.569 100.45 403.109 100.92 402.769 101.56C402.449 102.2 402.289 103.02 402.289 104.02V112H397.609V95.86H402.079V100.33L401.239 98.98C401.819 97.9 402.649 97.07 403.729 96.49C404.809 95.91 406.039 95.62 407.419 95.62ZM428.251 112V108.85L427.951 108.16V102.52C427.951 101.52 427.641 100.74 427.021 100.18C426.421 99.62 425.491 99.34 424.231 99.34C423.371 99.34 422.521 99.48 421.681 99.76C420.861 100.02 420.161 100.38 419.581 100.84L417.901 97.57C418.781 96.95 419.841 96.47 421.081 96.13C422.321 95.79 423.581 95.62 424.861 95.62C427.321 95.62 429.231 96.2 430.591 97.36C431.951 98.52 432.631 100.33 432.631 102.79V112H428.251ZM423.331 112.24C422.071 112.24 420.991 112.03 420.091 111.61C419.191 111.17 418.501 110.58 418.021 109.84C417.541 109.1 417.301 108.27 417.301 107.35C417.301 106.39 417.531 105.55 417.991 104.83C418.471 104.11 419.221 103.55 420.241 103.15C421.261 102.73 422.591 102.52 424.231 102.52H428.521V105.25H424.741C423.641 105.25 422.881 105.43 422.461 105.79C422.061 106.15 421.861 106.6 421.861 107.14C421.861 107.74 422.091 108.22 422.551 108.58C423.031 108.92 423.681 109.09 424.501 109.09C425.281 109.09 425.981 108.91 426.601 108.55C427.221 108.17 427.671 107.62 427.951 106.9L428.671 109.06C428.331 110.1 427.711 110.89 426.811 111.43C425.911 111.97 424.751 112.24 423.331 112.24ZM443.467 112.24C441.567 112.24 440.087 111.76 439.027 110.8C437.967 109.82 437.437 108.37 437.437 106.45V92.29H442.117V106.39C442.117 107.07 442.297 107.6 442.657 107.98C443.017 108.34 443.507 108.52 444.127 108.52C444.867 108.52 445.497 108.32 446.017 107.92L447.277 111.22C446.797 111.56 446.217 111.82 445.537 112C444.877 112.16 444.187 112.24 443.467 112.24ZM434.947 99.82V96.22H446.137V99.82H434.947ZM449.904 112V95.86H454.584V112H449.904ZM452.244 93.61C451.384 93.61 450.684 93.36 450.144 92.86C449.604 92.36 449.334 91.74 449.334 91C449.334 90.26 449.604 89.64 450.144 89.14C450.684 88.64 451.384 88.39 452.244 88.39C453.104 88.39 453.804 88.63 454.344 89.11C454.884 89.57 455.154 90.17 455.154 90.91C455.154 91.69 454.884 92.34 454.344 92.86C453.824 93.36 453.124 93.61 452.244 93.61ZM466.608 112.24C464.888 112.24 463.358 111.88 462.018 111.16C460.698 110.44 459.648 109.46 458.868 108.22C458.108 106.96 457.728 105.53 457.728 103.93C457.728 102.31 458.108 100.88 458.868 99.64C459.648 98.38 460.698 97.4 462.018 96.7C463.358 95.98 464.888 95.62 466.608 95.62C468.308 95.62 469.828 95.98 471.168 96.7C472.508 97.4 473.558 98.37 474.318 99.61C475.078 100.85 475.458 102.29 475.458 103.93C475.458 105.53 475.078 106.96 474.318 108.22C473.558 109.46 472.508 110.44 471.168 111.16C469.828 111.88 468.308 112.24 466.608 112.24ZM466.608 108.4C467.388 108.4 468.088 108.22 468.708 107.86C469.328 107.5 469.818 106.99 470.178 106.33C470.538 105.65 470.718 104.85 470.718 103.93C470.718 102.99 470.538 102.19 470.178 101.53C469.818 100.87 469.328 100.36 468.708 100C468.088 99.64 467.388 99.46 466.608 99.46C465.828 99.46 465.128 99.64 464.508 100C463.888 100.36 463.388 100.87 463.008 101.53C462.648 102.19 462.468 102.99 462.468 103.93C462.468 104.85 462.648 105.65 463.008 106.33C463.388 106.99 463.888 107.5 464.508 107.86C465.128 108.22 465.828 108.4 466.608 108.4ZM488.396 95.62C489.676 95.62 490.816 95.88 491.816 96.4C492.836 96.9 493.636 97.68 494.216 98.74C494.796 99.78 495.086 101.12 495.086 102.76V112H490.406V103.48C490.406 102.18 490.116 101.22 489.536 100.6C488.976 99.98 488.176 99.67 487.136 99.67C486.396 99.67 485.726 99.83 485.126 100.15C484.546 100.45 484.086 100.92 483.746 101.56C483.426 102.2 483.266 103.02 483.266 104.02V112H478.586V95.86H483.056V100.33L482.216 98.98C482.796 97.9 483.626 97.07 484.706 96.49C485.786 95.91 487.016 95.62 488.396 95.62ZM509.228 112V108.85L508.928 108.16V102.52C508.928 101.52 508.618 100.74 507.998 100.18C507.398 99.62 506.468 99.34 505.208 99.34C504.348 99.34 503.498 99.48 502.658 99.76C501.838 100.02 501.138 100.38 500.558 100.84L498.878 97.57C499.758 96.95 500.818 96.47 502.058 96.13C503.298 95.79 504.558 95.62 505.838 95.62C508.298 95.62 510.208 96.2 511.568 97.36C512.928 98.52 513.608 100.33 513.608 102.79V112H509.228ZM504.308 112.24C503.048 112.24 501.968 112.03 501.068 111.61C500.168 111.17 499.478 110.58 498.998 109.84C498.518 109.1 498.278 108.27 498.278 107.35C498.278 106.39 498.508 105.55 498.968 104.83C499.448 104.11 500.198 103.55 501.218 103.15C502.238 102.73 503.568 102.52 505.208 102.52H509.498V105.25H505.718C504.618 105.25 503.858 105.43 503.438 105.79C503.038 106.15 502.838 106.6 502.838 107.14C502.838 107.74 503.068 108.22 503.528 108.58C504.008 108.92 504.658 109.09 505.478 109.09C506.258 109.09 506.958 108.91 507.578 108.55C508.198 108.17 508.648 107.62 508.928 106.9L509.648 109.06C509.308 110.1 508.688 110.89 507.788 111.43C506.888 111.97 505.728 112.24 504.308 112.24ZM517.844 112V89.74H522.524V112H517.844Z" fill="white"/>
</svg>
